<svg xmlns="http://www.w3.org/2000/svg" x="0px" y="0px"
width="32" height="32"
viewBox="0 0 172 172"
style=" fill:#000000;"><g fill="none" fill-rule="nonzero" stroke="none" stroke-width="1" stroke-linecap="butt" stroke-linejoin="miter" stroke-miterlimit="10" stroke-dasharray="" stroke-dashoffset="0" font-family="none" font-weight="none" font-size="none" text-anchor="none" style="mix-blend-mode: normal"><path d="M0,172v-172h172v172z" fill="none"></path><g fill="#ffffff"><path d="M28.66667,21.5c-7.88333,0 -14.33333,6.45 -14.33333,14.33333v86l21.5,-21.5h64.5c7.88333,0 14.33333,-6.45 14.33333,-14.33333v-50.16667c0,-7.88333 -6.45,-14.33333 -14.33333,-14.33333zM129,57.33333v28.66667c0,15.80967 -12.857,28.66667 -28.66667,28.66667h-43v7.16667c0,7.88333 6.45,14.33333 14.33333,14.33333h64.5l21.5,21.5v-86c0,-7.88333 -6.45,-14.33333 -14.33333,-14.33333z"></path></g></g></svg>